<svg width="60" height="95" viewBox="0 0 60 95" fill="none" xmlns="http://www.w3.org/2000/svg">
<path d="M21.465 43.536C22.676 43.536 23.816 43.063 24.672 42.207C26.44 40.438 26.44 37.561 24.672 35.793L22.172 33.293C21.781 32.902 21.149 32.902 20.758 33.293L18.258 35.793C16.489 37.562 16.489 40.439 18.258 42.207C19.113 43.063 20.253 43.536 21.465 43.536Z" fill="#005C2D"/>
<path d="M30 0C17.08 0 4 2.404 4 7V12V15V21.053V53C4 57.596 17.08 60 30 60C42.92 60 56 57.596 56 53V21.053V15V12V7C56 2.404 42.92 0 30 0ZM6.01 9.928C6.344 10.144 6.718 10.354 7.135 10.557C7.166 10.572 7.201 10.587 7.233 10.602C7.413 10.688 7.597 10.773 7.791 10.857C7.82 10.869 7.853 10.881 7.883 10.894C8.085 10.979 8.292 11.063 8.51 11.146C8.532 11.154 8.556 11.162 8.578 11.17C8.808 11.256 9.043 11.341 9.29 11.424C9.311 11.431 9.334 11.438 9.355 11.445C9.606 11.528 9.863 11.611 10.131 11.691C10.235 11.722 10.346 11.752 10.452 11.782C10.714 11.858 10.982 11.932 11.26 12.005C11.449 12.055 11.649 12.106 11.891 12.166C11.928 12.175 11.962 12.185 12 12.194V15.132C7.29 13.926 6 12.58 6 12V9.922C6.003 9.924 6.006 9.925 6.01 9.928C6.009 9.927 6.009 9.927 6.01 9.928ZM6 15V14.914C7.335 15.785 9.337 16.546 12 17.19V24.412C12 26.047 13.054 27.471 14.562 27.875C15.402 28.102 16.28 28.005 17 27.662V27.869C17 29.848 18.347 31.553 20.2 31.92C20.466 31.973 20.734 32 21.001 32C23.206 32 25 30.205 25 28V22.463C25.186 22.571 25.385 22.658 25.588 22.735C25.628 22.75 25.669 22.763 25.71 22.777C25.896 22.841 26.088 22.892 26.286 22.928C26.309 22.932 26.331 22.938 26.354 22.942C26.564 22.976 26.779 23 26.999 23C26.999 23 26.999 23 27 23C27.014 23 27.028 22.996 27.041 22.996C27.293 22.994 27.546 22.971 27.799 22.92C29.614 22.561 30.933 20.919 30.99 18.994C40.545 18.904 49.996 17.5 54 14.871V15V21.053C54 35.911 43.641 48 30.908 48H29.092C16.359 48 6 35.911 6 21.053V15ZM54 9.877V12C54 13.708 46.106 16.861 31 16.995V13.995C31.53 13.99 32.06 13.979 32.589 13.966C32.718 13.963 32.847 13.959 32.976 13.956C33.501 13.941 34.025 13.923 34.547 13.9C34.578 13.899 34.608 13.897 34.638 13.895C35.135 13.873 35.629 13.846 36.121 13.816C36.247 13.809 36.372 13.801 36.497 13.793C37.01 13.76 37.521 13.725 38.026 13.684C38.073 13.68 38.12 13.676 38.167 13.672C38.632 13.634 39.093 13.591 39.55 13.547C39.673 13.535 39.795 13.523 39.917 13.511C40.407 13.461 40.892 13.407 41.37 13.35C41.431 13.342 41.491 13.334 41.551 13.327C41.982 13.274 42.407 13.217 42.827 13.157C42.939 13.141 43.05 13.126 43.161 13.109C43.622 13.041 44.076 12.971 44.521 12.895C44.589 12.883 44.656 12.871 44.724 12.859C45.116 12.791 45.501 12.72 45.88 12.646C45.979 12.627 46.079 12.608 46.178 12.588C46.6 12.503 47.014 12.415 47.417 12.322C47.487 12.306 47.554 12.289 47.624 12.273C47.972 12.191 48.312 12.106 48.644 12.019C48.731 11.996 48.82 11.973 48.906 11.95C49.28 11.848 49.643 11.743 49.994 11.634C50.061 11.613 50.124 11.592 50.19 11.571C50.492 11.474 50.783 11.375 51.066 11.273C51.136 11.248 51.208 11.223 51.277 11.197C51.595 11.078 51.901 10.956 52.191 10.829C52.25 10.803 52.305 10.777 52.363 10.751C52.611 10.64 52.847 10.526 53.073 10.41C53.127 10.382 53.183 10.355 53.235 10.327C53.488 10.192 53.725 10.052 53.946 9.91C53.962 9.898 53.983 9.888 54 9.877ZM51 6C51.552 6 52 6.448 52 7C52 7.552 51.552 8 51 8C50.448 8 50 7.552 50 7C50 6.448 50.448 6 51 6ZM45 6C45.552 6 46 6.448 46 7C46 7.552 45.552 8 45 8C44.448 8 44 7.552 44 7C44 6.448 44.448 6 45 6ZM42 3C42.552 3 43 3.448 43 4C43 4.552 42.552 5 42 5C41.448 5 41 4.552 41 4C41 3.448 41.448 3 42 3ZM42 9C42.552 9 43 9.448 43 10C43 10.552 42.552 11 42 11C41.448 11 41 10.552 41 10C41 9.448 41.448 9 42 9ZM39 6C39.552 6 40 6.448 40 7C40 7.552 39.552 8 39 8C38.448 8 38 7.552 38 7C38 6.448 38.448 6 39 6ZM36 3C36.552 3 37 3.448 37 4C37 4.552 36.552 5 36 5C35.448 5 35 4.552 35 4C35 3.448 35.448 3 36 3ZM36 9C36.552 9 37 9.448 37 10C37 10.552 36.552 11 36 11C35.448 11 35 10.552 35 10C35 9.448 35.448 9 36 9ZM33 6C33.552 6 34 6.448 34 7C34 7.552 33.552 8 33 8C32.448 8 32 7.552 32 7C32 6.448 32.448 6 33 6ZM30 3C30.552 3 31 3.448 31 4C31 4.552 30.552 5 30 5C29.448 5 29 4.552 29 4C29 3.448 29.448 3 30 3ZM30 9C30.552 9 31 9.448 31 10C31 10.552 30.552 11 30 11C29.448 11 29 10.552 29 10C29 9.448 29.448 9 30 9ZM27 6C27.552 6 28 6.448 28 7C28 7.552 27.552 8 27 8C26.448 8 26 7.552 26 7C26 6.448 26.448 6 27 6ZM24 3C24.552 3 25 3.448 25 4C25 4.552 24.552 5 24 5C23.448 5 23 4.552 23 4C23 3.448 23.448 3 24 3ZM24 9C24.552 9 25 9.448 25 10C25 10.552 24.552 11 24 11C23.448 11 23 10.552 23 10C23 9.448 23.448 9 24 9ZM21 6C21.552 6 22 6.448 22 7C22 7.552 21.552 8 21 8C20.448 8 20 7.552 20 7C20 6.448 20.448 6 21 6ZM18 3C18.552 3 19 3.448 19 4C19 4.552 18.552 5 18 5C17.448 5 17 4.552 17 4C17 3.448 17.448 3 18 3ZM18 9C18.552 9 19 9.448 19 10C19 10.552 18.552 11 18 11C17.448 11 17 10.552 17 10C17 9.448 17.448 9 18 9ZM15 6C15.552 6 16 6.448 16 7C16 7.552 15.552 8 15 8C14.448 8 14 7.552 14 7C14 6.448 14.448 6 15 6ZM9 6C9.552 6 10 6.448 10 7C10 7.552 9.552 8 9 8C8.448 8 8 7.552 8 7C8 6.448 8.448 6 9 6ZM54 53C54 54.745 45.757 58 30 58C14.243 58 6 54.745 6 53V32.374C9.828 42.725 18.736 50 29.092 50H30.908C41.264 50 50.172 42.725 54 32.374V53Z" fill="#49CE8C"/>
<path d="M3.8331 88V66.9091H12.1541C13.7538 66.9091 15.1166 67.2146 16.2425 67.8256C17.3685 68.4298 18.2267 69.2708 18.8171 70.3487C19.4144 71.4197 19.7131 72.6555 19.7131 74.0561C19.7131 75.4567 19.411 76.6925 18.8068 77.7635C18.2027 78.8345 17.3273 79.6687 16.1808 80.266C15.0411 80.8633 13.6611 81.1619 12.0408 81.1619H6.73722V77.5884H11.32C12.1781 77.5884 12.8853 77.4408 13.4414 77.1456C14.0044 76.8435 14.4232 76.4281 14.6978 75.8995C14.9793 75.364 15.12 74.7495 15.12 74.0561C15.12 73.3558 14.9793 72.7448 14.6978 72.223C14.4232 71.6944 14.0044 71.2859 13.4414 70.9975C12.8784 70.7023 12.1644 70.5547 11.2994 70.5547H8.29226V88H3.8331ZM26.6129 88.2987C25.6037 88.2987 24.7043 88.1236 23.9148 87.7734C23.1252 87.4164 22.5005 86.8912 22.0405 86.1978C21.5874 85.4975 21.3608 84.6256 21.3608 83.582C21.3608 82.7032 21.5221 81.9652 21.8448 81.3679C22.1675 80.7706 22.6069 80.29 23.163 79.9261C23.7191 79.5623 24.3507 79.2876 25.0579 79.1023C25.7719 78.9169 26.5202 78.7865 27.3029 78.7109C28.2229 78.6148 28.9644 78.5256 29.5273 78.4432C30.0903 78.3539 30.4988 78.2235 30.7528 78.0518C31.0069 77.8802 31.1339 77.6262 31.1339 77.2898V77.228C31.1339 76.5758 30.9279 76.0711 30.516 75.7141C30.1109 75.3571 29.5342 75.1786 28.7859 75.1786C27.9963 75.1786 27.3681 75.3537 26.9013 75.7038C26.4344 76.0471 26.1255 76.4796 25.9744 77.0014L21.9169 76.6719C22.1229 75.7107 22.5279 74.88 23.1321 74.1797C23.7363 73.4725 24.5155 72.9302 25.4698 72.5526C26.431 72.1681 27.5432 71.9759 28.8065 71.9759C29.6853 71.9759 30.5263 72.0788 31.3295 72.2848C32.1397 72.4908 32.8571 72.81 33.4819 73.2425C34.1135 73.6751 34.6113 74.2312 34.9751 74.9109C35.339 75.5837 35.521 76.3904 35.521 77.331V88H31.3604V85.8065H31.2369C30.9828 86.3008 30.643 86.7367 30.2173 87.1143C29.7917 87.4851 29.2802 87.7769 28.6829 87.9897C28.0856 88.1957 27.3956 88.2987 26.6129 88.2987ZM27.8693 85.271C28.5147 85.271 29.0845 85.1439 29.5788 84.8899C30.0732 84.629 30.4611 84.2789 30.7425 83.8395C31.024 83.4001 31.1648 82.9023 31.1648 82.3462V80.6676C31.0275 80.7569 30.8387 80.8393 30.5984 80.9148C30.3649 80.9834 30.1006 81.0487 29.8054 81.1104C29.5102 81.1654 29.215 81.2169 28.9197 81.2649C28.6245 81.3061 28.3568 81.3439 28.1165 81.3782C27.6016 81.4537 27.1519 81.5739 26.7674 81.7386C26.3829 81.9034 26.0843 82.1265 25.8714 82.408C25.6586 82.6826 25.5522 83.0259 25.5522 83.4379C25.5522 84.0352 25.7685 84.4917 26.201 84.8075C26.6404 85.1165 27.1965 85.271 27.8693 85.271ZM46.898 66.9091V88H42.4388V71.1417H42.3153L37.4854 74.1694V70.2148L42.7066 66.9091H46.898ZM56.339 66.9091V88H51.9519V66.9091H56.339Z" fill="#005C2D"/>
</svg>
